<?xml version="1.0" encoding="utf-8"?>
<!-- Generator: Adobe Illustrator 16.0.0, SVG Export Plug-In . SVG Version: 6.00 Build 0)  -->
<!DOCTYPE svg PUBLIC "-//W3C//DTD SVG 1.1//EN" "http://www.w3.org/Graphics/SVG/1.1/DTD/svg11.dtd">
<svg version="1.1" id="Capa_1" xmlns="http://www.w3.org/2000/svg" xmlns:xlink="http://www.w3.org/1999/xlink" x="0px" y="0px"
	 width="433.5px" height="155.5px" viewBox="0 0 433.5 155.5" enable-background="new 0 0 433.5 155.5" xml:space="preserve">
<g>
	<path fill="#FFFFFF" d="M68.642,70.12c-1.932,0.966-5.796,1.932-10.748,1.932c-11.472,0-20.106-7.246-20.106-20.589
		c0-12.74,8.634-21.375,21.253-21.375c5.072,0,8.272,1.087,9.661,1.812l-1.268,4.287c-1.993-0.966-4.831-1.691-8.211-1.691
		c-9.54,0-15.88,6.099-15.88,16.786c0,9.962,5.736,16.363,15.638,16.363c3.2,0,6.46-0.665,8.574-1.691L68.642,70.12z"/>
	<path fill="#FFFFFF" d="M75.223,31.296c2.657-0.543,6.46-0.846,10.083-0.846c5.616,0,9.238,1.027,11.774,3.321
		c2.053,1.812,3.2,4.589,3.2,7.729c0,5.374-3.381,8.937-7.668,10.385v0.181c3.14,1.087,5.011,3.985,5.978,8.212
		c1.328,5.675,2.294,9.6,3.14,11.17h-5.434c-0.664-1.147-1.57-4.649-2.717-9.721c-1.208-5.615-3.381-7.729-8.151-7.91h-4.951v17.631
		h-5.253V31.296z M80.476,49.833h5.374c5.615,0,9.178-3.079,9.178-7.729c0-5.253-3.804-7.547-9.359-7.608
		c-2.536,0-4.347,0.242-5.192,0.483V49.833z"/>
	<path fill="#FFFFFF" d="M112.96,30.753v40.695h-5.253V30.753H112.96z"/>
	<path fill="#FFFFFF" d="M121.414,65.048c2.355,1.449,5.796,2.657,9.419,2.657c5.374,0,8.514-2.838,8.514-6.943
		c0-3.804-2.174-5.978-7.668-8.091c-6.642-2.355-10.748-5.796-10.748-11.532c0-6.34,5.253-11.05,13.163-11.05
		c4.166,0,7.185,0.966,8.997,1.993l-1.449,4.287c-1.329-0.725-4.045-1.932-7.729-1.932c-5.555,0-7.668,3.321-7.668,6.098
		c0,3.804,2.475,5.676,8.09,7.849c6.883,2.657,10.385,5.978,10.385,11.955c0,6.28-4.649,11.714-14.25,11.714
		c-3.924,0-8.211-1.147-10.385-2.597L121.414,65.048z"/>
	<path fill="#FFFFFF" d="M159.634,35.221h-12.378v-4.468h30.129v4.468h-12.438v36.228h-5.313V35.221z"/>
	<path fill="#FFFFFF" d="M187.167,30.753v40.695h-5.253V30.753H187.167z"/>
	<path fill="#FFFFFF" d="M202.926,58.648l-4.227,12.8h-5.434l13.827-40.695h6.34l13.887,40.695h-5.615l-4.348-12.8H202.926z
		 M216.27,54.542l-3.985-11.713c-0.906-2.657-1.509-5.072-2.113-7.427h-0.121c-0.604,2.415-1.268,4.891-2.053,7.366l-3.985,11.774
		H216.27z"/>
	<path fill="#FFFFFF" d="M233.298,71.448V30.753h5.736l13.042,20.589c3.019,4.77,5.374,9.057,7.306,13.223l0.121-0.06
		c-0.483-5.435-0.604-10.385-0.604-16.725V30.753h4.951v40.695h-5.313l-12.921-20.649c-2.838-4.529-5.555-9.178-7.608-13.585
		l-0.181,0.061c0.302,5.132,0.423,10.023,0.423,16.785v17.389H233.298z"/>
	<path fill="#FFFFFF" d="M273.027,31.296c2.657-0.543,6.46-0.846,10.083-0.846c5.615,0,9.238,1.027,11.774,3.321
		c2.053,1.812,3.2,4.589,3.2,7.729c0,5.374-3.381,8.937-7.668,10.385v0.181c3.14,1.087,5.011,3.985,5.978,8.212
		c1.328,5.675,2.294,9.6,3.14,11.17H294.1c-0.664-1.147-1.57-4.649-2.717-9.721c-1.208-5.615-3.381-7.729-8.151-7.91h-4.951v17.631
		h-5.253V31.296z M278.28,49.833h5.374c5.615,0,9.178-3.079,9.178-7.729c0-5.253-3.804-7.547-9.359-7.608
		c-2.536,0-4.347,0.242-5.192,0.483V49.833z"/>
	<path fill="#FFFFFF" d="M310.765,30.753v40.695h-5.253V30.753H310.765z"/>
	<path fill="#FFFFFF" d="M354.721,50.678c0,14.008-8.514,21.435-18.899,21.435c-10.747,0-18.294-8.332-18.294-20.649
		c0-12.921,8.03-21.375,18.898-21.375C347.536,30.088,354.721,38.602,354.721,50.678z M323.143,51.342
		c0,8.695,4.709,16.484,12.981,16.484c8.332,0,13.042-7.668,13.042-16.906c0-8.091-4.227-16.544-12.982-16.544
		C327.49,34.375,323.143,42.406,323.143,51.342z"/>
	<path fill="#FFFFFF" d="M360.82,65.048c2.355,1.449,5.796,2.657,9.419,2.657c5.374,0,8.514-2.838,8.514-6.943
		c0-3.804-2.174-5.978-7.668-8.091c-6.642-2.355-10.748-5.796-10.748-11.532c0-6.34,5.253-11.05,13.163-11.05
		c4.166,0,7.185,0.966,8.997,1.993l-1.449,4.287c-1.329-0.725-4.045-1.932-7.729-1.932c-5.555,0-7.668,3.321-7.668,6.098
		c0,3.804,2.475,5.676,8.09,7.849c6.883,2.657,10.385,5.978,10.385,11.955c0,6.28-4.649,11.714-14.25,11.714
		c-3.924,0-8.211-1.147-10.385-2.597L360.82,65.048z"/>
	<path fill="#FFFFFF" d="M111.813,82.692c2.536-0.423,5.857-0.785,10.083-0.785c5.193,0,8.997,1.208,11.412,3.381
		c2.234,1.933,3.562,4.891,3.562,8.514c0,3.683-1.087,6.581-3.14,8.694c-2.777,2.959-7.306,4.468-12.438,4.468
		c-1.57,0-3.019-0.06-4.227-0.362v16.303h-5.253V82.692z M117.066,102.314c1.147,0.303,2.596,0.424,4.347,0.424
		c6.34,0,10.204-3.08,10.204-8.695c0-5.373-3.804-7.97-9.6-7.97c-2.294,0-4.045,0.181-4.951,0.423V102.314z"/>
	<path fill="#FFFFFF" d="M178.714,102.134c0,14.008-8.514,21.435-18.899,21.435c-10.747,0-18.294-8.332-18.294-20.649
		c0-12.921,8.03-21.375,18.898-21.375C171.529,81.544,178.714,90.059,178.714,102.134z M147.136,102.798
		c0,8.694,4.709,16.483,12.981,16.483c8.332,0,13.042-7.668,13.042-16.906c0-8.09-4.227-16.543-12.982-16.543
		C151.483,85.832,147.136,93.861,147.136,102.798z"/>
	<path fill="#FFFFFF" d="M185.538,82.752c2.657-0.543,6.46-0.846,10.083-0.846c5.616,0,9.238,1.027,11.774,3.321
		c2.053,1.812,3.2,4.589,3.2,7.729c0,5.374-3.381,8.937-7.668,10.386v0.181c3.14,1.087,5.011,3.985,5.978,8.212
		c1.328,5.676,2.294,9.6,3.14,11.17h-5.434c-0.664-1.147-1.57-4.649-2.717-9.721c-1.208-5.615-3.381-7.729-8.151-7.91h-4.951v17.631
		h-5.253V82.752z M190.791,101.289h5.374c5.615,0,9.178-3.08,9.178-7.729c0-5.254-3.804-7.548-9.359-7.608
		c-2.536,0-4.347,0.241-5.192,0.483V101.289z"/>
	<path fill="#FFFFFF" d="M226.293,86.677h-12.378v-4.468h30.129v4.468h-12.438v36.228h-5.313V86.677z"/>
	<path fill="#FFFFFF" d="M248.573,82.209h21.917v4.408h-16.665v13.524h15.396v4.347h-15.396v18.416h-5.253V82.209z"/>
	<path fill="#FFFFFF" d="M312.757,102.134c0,14.008-8.514,21.435-18.899,21.435c-10.747,0-18.294-8.332-18.294-20.649
		c0-12.921,8.03-21.375,18.898-21.375C305.572,81.544,312.757,90.059,312.757,102.134z M281.179,102.798
		c0,8.694,4.709,16.483,12.981,16.483c8.332,0,13.042-7.668,13.042-16.906c0-8.09-4.227-16.543-12.982-16.543
		C285.526,85.832,281.179,93.861,281.179,102.798z"/>
	<path fill="#FFFFFF" d="M319.58,82.209h5.253v36.288h17.389v4.407H319.58V82.209z"/>
	<path fill="#FFFFFF" d="M353.332,82.209v40.695h-5.253V82.209H353.332z"/>
	<path fill="#FFFFFF" d="M397.288,102.134c0,14.008-8.514,21.435-18.899,21.435c-10.747,0-18.294-8.332-18.294-20.649
		c0-12.921,8.03-21.375,18.898-21.375C390.104,81.544,397.288,90.059,397.288,102.134z M365.71,102.798
		c0,8.694,4.709,16.483,12.981,16.483c8.332,0,13.042-7.668,13.042-16.906c0-8.09-4.227-16.543-12.982-16.543
		C370.057,85.832,365.71,93.861,365.71,102.798z"/>
</g>
</svg>
